# xmcd
#
# Track frame offsets:
# 150
# 14917
# 31460
# 45735
# 55700
# 68585
# 82850
# 96230
# 108007
# 120247
# 134137
# 153807
# 166560
# 180387
# 195052
# 208575
# 222380
# 231020
# 246140
#
# Disc length: 3558 seconds
#
#
# Revision: 0
# Processed by: cddbd v1.5.2PL0 Copyright (c) Steve Scherf et al.
# Submitted via: FreeRIP 2.943 
#
DISCID=ec0de413
DTITLE=Various Artist - The Greatest Country Songs vol. 2
DYEAR=1900
DGENRE=Country
TTITLE0=Lita Anderson - Handy Man
TTITLE1=Lita Anderson - Sundown
TTITLE2=Lobo - Me and You and a Dog Named Boo
TTITLE3=Johnny Horton - Honky Talkman
TTITLE4=Johnny Horton - North To Alaska
TTITLE5=Johnny Horton - The Mansion You Stole
TTITLE6=Johnny Horton - Whispering Pines
TTITLE7=Hank Williams - Kaw Liga
TTITLE8=Hank Williams - Your Cheatin' Heart
TTITLE9=The Brother Fours - Greenfields
TTITLE10=Conway Twitty - Don't Cry Joni
TTITLE11=Peter, Paul and Mary - Blowing in the Wind
TTITLE12=The Kingston Trio - Where Have All The Flowers Gone
TTITLE13=Peter, Paul and Mary - Puff
TTITLE14=Tremeloes - Silence Is Golden
TTITLE15=Olivia Newton-John - Let Me Be There
TTITLE16=Skeeter Davis and Bobby Bare - A Dear John Letter
TTITLE17=John Denver - Country Road
TTITLE18=Bobby Bare - 500 Miles
EXTD=
EXTT0=
EXTT1=
EXTT2=
EXTT3=
EXTT4=
EXTT5=
EXTT6=
EXTT7=
EXTT8=
EXTT9=
EXTT10=
EXTT11=
EXTT12=
EXTT13=
EXTT14=
EXTT15=
EXTT16=
EXTT17=
EXTT18=
PLAYORDER=
